<svg xmlns="http://www.w3.org/2000/svg" width="638.688" height="638.688" viewBox="0 0 638.688 638.688">
  <g data-paper-data="{&quot;isPaintingLayer&quot;:true}" stroke-miterlimit="10" style="mix-blend-mode:normal">
    <path d="M19.344 505.344v-372h600v372z" fill="#f9ff96"/>
    <path d="M0 319.344C0 142.975 142.974 0 319.344 0s319.344 142.974 319.344 319.344-142.974 319.344-319.344 319.344S0 495.714 0 319.344" fill="#fcff40"/>
    <path d="M39.5 319.344C39.5 164.79 164.79 39.5 319.344 39.5s279.844 125.29 279.844 279.844-125.29 279.844-279.844 279.844S39.5 473.898 39.5 319.344" fill="#f9ff96"/>
    <path d="M79.5 319.344C79.5 186.882 186.882 79.5 319.344 79.5s239.844 107.382 239.844 239.844-107.382 239.844-239.844 239.844S79.5 451.806 79.5 319.344" fill="#fcff40"/>
    <path d="M120 319.344C120 209.249 209.25 120 319.344 120c110.095 0 199.344 89.25 199.344 199.344 0 110.095-89.25 199.344-199.344 199.344-110.095 0-199.344-89.25-199.344-199.344" fill="#f9ff96"/>
    <path d="M159.25 319.344c0-88.417 71.677-160.094 160.094-160.094 88.418 0 160.094 71.677 160.094 160.094 0 88.418-71.676 160.094-160.094 160.094S159.25 407.762 159.25 319.344" fill="#fcff40"/>
    <path d="M200 319.344C200 253.432 253.432 200 319.344 200s119.344 53.432 119.344 119.344-53.432 119.344-119.344 119.344S200 385.256 200 319.344" fill="#f9ff96"/>
    <path d="M239.25 319.344c0-44.235 35.86-80.094 80.094-80.094 44.235 0 80.094 35.86 80.094 80.094 0 44.235-35.86 80.094-80.094 80.094-44.235 0-80.094-35.86-80.094-80.094" fill="#fcff40"/>
    <path d="M366.432 245.752c.76.363 1.543.653 2.37.815 3.466.679 7.072-1.55 10.554-.952 4.008.688 7.42 3.359 11.261 4.697 17.734 6.181 37.402 9.322 47.15 27.907 5.035 9.602 2.426 24.427 3.178 34.85-3.188 10.7-5.185 25.746-10.4 35.892-2.386 4.642-6.033 8.538-8.633 13.063-11.397 19.833-20.384 42.677-42.07 54.433-4.03 2.184-8.911 2.156-13.395 3.107-15.448 3.274-27.134 22.174-42.985 18.606-6.123-1.378-27.671-.359-33.722-2.023-5.005-1.376-3.819-21.326-8.61-23.324-4.557-1.902-7.833-6.029-11.958-8.743-1.207-.794-22.114-12.579-24.552-15.992-6.348-8.886-7.477-18.768-9.547-28.926-3.916-20.974 1.108-43.878 6.383-64.268 1.065-4.116.765-8.64 2.561-12.493 1.286-2.756 4.862-3.908 6.33-6.571 1.397-2.533.924-5.75 1.953-8.452 4.08-10.712 12.74-25.037 21.742-32.487 14.242-11.789 26.456-11.108 43.358-12.626 15.401-1.383 23.135-7.419 39.683-.66 3.751 1.533 5.995 5.453 8.993 8.18 0 0 7.924 7.924.356 15.967z" fill="none" stroke="#000" stroke-width="40"/>
    <path d="M445.804 279.574c-1.13 2.65-3.49 5.22-8.269 6.176-7.05 1.41-10.59-2.446-12.257-5.559-2.147-1.058-4.27-2.152-6.075-3.696-2.01-1.718-2.827-4.581-4.503-6.595a62 62 0 0 1-1.673-1.453c-2.314-1.325-5.516-.824-7.83-2.221-2.89-1.744-4.444-5.262-7.375-6.934-9.23-5.268-22.994-8.578-33.36-7.754-12.728-3.393-18.24-4.35-30.771-1.796-8.483 1.728-20.835 1.668-28.532 5.311-2.084.987-3.198 3.334-4.957 4.825-4.815 4.081-10.652 6.889-15.29 11.172-11.715 10.82-18.112 29.787-23.492 44.3-3.328 8.977-3.925 20.945-8.237 29.409-1.879 3.687-5.99 5.827-8.179 9.34-3.38 5.423-4.292 12.05-6.878 17.895-3.83 3.3-6.978 7.62-11.49 9.903-4.137 2.094-9.003 3.185-13.624 2.804-27.742-2.286-27.495-43.456-23.513-64.24 2.812-14.677 6.63-30.822 13.405-44.345 2.732-5.453 7.646-9.551 10.79-14.778 1.692-2.814 1.922-6.46 3.997-9.005 2.79-3.422 6.842-5.582 10.215-8.43 13.365-11.281 26.19-20.833 40.873-30.416 20.24-13.3 47.24-14.047 70.692-13.568 3.382.069 6.824-.96 10.143-.304 12.05 2.384 18.211 11.575 28.475 16.821 2.771 1.416 19.098 8.047 22.583 10.016 11.643 6.579 17.86 15.455 27.085 24.153a30 30 0 0 1 2.05 1.862c4.89 4.266 10.318 7.948 14.796 12.64 0 0 6.734 7.143 1.201 14.467z" fill="none" stroke="#000" stroke-width="40"/>
    <path d="M304.303 294.578c-1.251-6.254 2.805-12.34 9.06-13.59s12.34 2.805 13.59 9.06-2.805 12.34-9.06 13.59c-6.255 1.252-12.34-2.805-13.59-9.06zm110.117 6.97c-1.251-6.255 2.805-12.34 9.06-13.59 6.255-1.252 12.34 2.805 13.59 9.06 1.251 6.254-2.805 12.34-9.06 13.59s-12.34-2.805-13.59-9.06zm-.539 44.669c10.68 4.398 6.282 15.077 6.282 15.077l-2.696 5.959c-1.605 2.406-9.927 15.055-11.207 16.144-9.076 7.726-21.75 8.41-32.844 10.612-8.21 1.63-22.16 5.025-30.158 4.367-4.236-.348-7.916-3.172-12.042-4.192-3.563-.88-7.585.071-10.91-1.482-3.446-1.61-5.494-5.283-8.516-7.591-11.05-8.44-23.07-13.503-28.59-27.666-1.8-4.618-1.222-9.836-1.833-14.754 0 0-1.127-11.495 10.367-12.622s12.622 10.368 12.622 10.368c.163 2.98-.447 6.108.49 8.942 2.602 7.874 16.37 13.646 21.59 17.868 1.485 1.202 1.82 3.71 3.565 4.489 1.911.854 4.244-.575 6.28-.089 3.116.745 5.679 3.393 8.867 3.707 6.13.605 17.442-2.726 23.738-3.996 4.514-.91 18.104-1.362 21.983-5.185 3.29-3.244 4.815-7.89 7.378-11.734l.556-1.94s4.398-10.68 15.078-6.282z" fill="none" stroke="#000" stroke-width="40"/>
    <path d="M279.417 319.344c0-22.051 17.876-39.927 39.927-39.927s39.927 17.876 39.927 39.927-17.876 39.927-39.927 39.927-39.927-17.876-39.927-39.927" fill="#f9ff96"/>
    <path d="M366.432 245.752c.76.363 1.543.653 2.37.815 3.466.679 7.072-1.55 10.554-.952 4.008.688 7.42 3.359 11.261 4.697 17.734 6.181 37.402 9.322 47.15 27.907 5.035 9.602 2.426 24.427 3.178 34.85-3.188 10.7-5.185 25.746-10.4 35.892-2.386 4.642-6.033 8.538-8.633 13.063-11.397 19.833-20.384 42.677-42.07 54.433-4.03 2.184-8.911 2.156-13.395 3.107-15.448 3.274-27.134 22.174-42.985 18.606-6.123-1.378-27.671-.359-33.722-2.023-5.005-1.376-3.819-21.326-8.61-23.324-4.557-1.902-7.833-6.029-11.958-8.743-1.207-.794-22.114-12.579-24.552-15.992-6.348-8.886-7.477-18.768-9.547-28.926-3.916-20.974 1.108-43.878 6.383-64.268 1.065-4.116.765-8.64 2.561-12.493 1.286-2.756 4.862-3.908 6.33-6.571 1.397-2.533.924-5.75 1.953-8.452 4.08-10.712 12.74-25.037 21.742-32.487 14.242-11.789 26.456-11.108 43.358-12.626 15.401-1.383 23.135-7.419 39.683-.66 3.751 1.533 5.995 5.453 8.993 8.18 0 0 7.924 7.924.356 15.967z" fill="none" stroke="#fff" stroke-width="20"/>
    <path d="M445.804 279.574c-1.13 2.65-3.49 5.22-8.269 6.176-7.05 1.41-10.59-2.446-12.257-5.559-2.147-1.058-4.27-2.152-6.075-3.696-2.01-1.718-2.827-4.581-4.503-6.595a62 62 0 0 1-1.673-1.453c-2.314-1.325-5.516-.824-7.83-2.221-2.89-1.744-4.444-5.262-7.375-6.934-9.23-5.268-22.994-8.578-33.36-7.754-12.728-3.393-18.24-4.35-30.771-1.796-8.483 1.728-20.835 1.668-28.532 5.311-2.084.987-3.198 3.334-4.957 4.825-4.815 4.081-10.652 6.889-15.29 11.172-11.715 10.82-18.112 29.787-23.492 44.3-3.328 8.977-3.925 20.945-8.237 29.409-1.879 3.687-5.99 5.827-8.179 9.34-3.38 5.423-4.292 12.05-6.878 17.895-3.83 3.3-6.978 7.62-11.49 9.903-4.137 2.094-9.003 3.185-13.624 2.804-27.742-2.286-27.495-43.456-23.513-64.24 2.812-14.677 6.63-30.822 13.405-44.345 2.732-5.453 7.646-9.551 10.79-14.778 1.692-2.814 1.922-6.46 3.997-9.005 2.79-3.422 6.842-5.582 10.215-8.43 13.365-11.281 26.19-20.833 40.873-30.416 20.24-13.3 47.24-14.047 70.692-13.568 3.382.069 6.824-.96 10.143-.304 12.05 2.384 18.211 11.575 28.475 16.821 2.771 1.416 19.098 8.047 22.583 10.016 11.643 6.579 17.86 15.455 27.085 24.153a30 30 0 0 1 2.05 1.862c4.89 4.266 10.318 7.948 14.796 12.64 0 0 6.734 7.143 1.201 14.467z" fill="none" stroke="#fff" stroke-width="20"/>
    <path d="M304.303 294.578c-1.251-6.254 2.805-12.34 9.06-13.59s12.34 2.805 13.59 9.06-2.805 12.34-9.06 13.59c-6.255 1.252-12.34-2.805-13.59-9.06zm110.117 6.97c-1.251-6.255 2.805-12.34 9.06-13.59 6.255-1.252 12.34 2.805 13.59 9.06 1.251 6.254-2.805 12.34-9.06 13.59s-12.34-2.805-13.59-9.06zm-.539 44.669c10.68 4.398 6.282 15.077 6.282 15.077l-2.696 5.959c-1.605 2.406-9.927 15.055-11.207 16.144-9.076 7.726-21.75 8.41-32.844 10.612-8.21 1.63-22.16 5.025-30.158 4.367-4.236-.348-7.916-3.172-12.042-4.192-3.563-.88-7.585.071-10.91-1.482-3.446-1.61-5.494-5.283-8.516-7.591-11.05-8.44-23.07-13.503-28.59-27.666-1.8-4.618-1.222-9.836-1.833-14.754 0 0-1.127-11.495 10.367-12.622s12.622 10.368 12.622 10.368c.163 2.98-.447 6.108.49 8.942 2.602 7.874 16.37 13.646 21.59 17.868 1.485 1.202 1.82 3.71 3.565 4.489 1.911.854 4.244-.575 6.28-.089 3.116.745 5.679 3.393 8.867 3.707 6.13.605 17.442-2.726 23.738-3.996 4.514-.91 18.104-1.362 21.983-5.185 3.29-3.244 4.815-7.89 7.378-11.734l.556-1.94s4.398-10.68 15.078-6.282z" fill="none" stroke="#fff" stroke-width="20"/>
    <path d="M366.432 245.752c.76.363 1.543.653 2.37.815 3.466.679 7.072-1.55 10.554-.952 4.008.688 7.42 3.359 11.261 4.697 17.734 6.181 37.402 9.322 47.15 27.907 5.035 9.602 2.426 24.427 3.178 34.85-3.188 10.7-5.185 25.746-10.4 35.892-2.386 4.642-6.033 8.538-8.633 13.063-11.398 19.833-20.384 42.677-42.07 54.433-4.03 2.184-8.911 2.156-13.395 3.107-15.448 3.274-27.134 22.174-42.985 18.606-6.123-1.378-27.671-.359-33.722-2.023-5.005-1.376-3.819-21.326-8.61-23.324-4.557-1.902-7.833-6.029-11.958-8.743-1.207-.794-22.114-12.579-24.552-15.992-6.348-8.886-7.477-18.768-9.547-28.926-3.916-20.974 1.108-43.878 6.383-64.268 1.065-4.116.765-8.64 2.561-12.493 1.286-2.756 4.862-3.908 6.33-6.571 1.397-2.533.924-5.75 1.953-8.452 4.08-10.712 12.74-25.037 21.742-32.487 14.242-11.789 26.455-11.108 43.358-12.626 15.401-1.383 23.135-7.419 39.683-.66 3.751 1.533 5.995 5.453 8.993 8.18 0 0 7.924 7.924.356 15.967" fill="#ffca89"/>
    <path d="M445.804 279.574c-1.13 2.65-3.49 5.22-8.269 6.176-7.05 1.41-10.59-2.446-12.257-5.559-2.147-1.058-4.27-2.152-6.075-3.696-2.01-1.718-2.827-4.581-4.503-6.595a62 62 0 0 1-1.673-1.453c-2.314-1.325-5.516-.824-7.83-2.221-2.89-1.744-4.444-5.262-7.375-6.934-9.23-5.268-22.994-8.578-33.36-7.754-12.728-3.393-18.24-4.35-30.771-1.796-8.483 1.728-20.835 1.668-28.532 5.311-2.084.987-3.198 3.334-4.957 4.825-4.815 4.081-10.652 6.889-15.29 11.172-11.715 10.82-18.112 29.787-23.492 44.3-3.328 8.977-3.925 20.945-8.237 29.409-1.879 3.687-5.99 5.827-8.179 9.34-3.38 5.423-4.292 12.05-6.878 17.895-3.83 3.3-6.978 7.62-11.49 9.903-4.137 2.094-9.003 3.185-13.624 2.804-27.742-2.286-27.495-43.456-23.513-64.24 2.812-14.677 6.63-30.822 13.405-44.345 2.732-5.453 7.646-9.551 10.79-14.778 1.692-2.814 1.922-6.46 3.997-9.005 2.79-3.422 6.842-5.582 10.215-8.43 13.365-11.281 26.19-20.833 40.873-30.416 20.24-13.3 47.24-14.047 70.692-13.568 3.382.069 6.824-.96 10.143-.304 12.05 2.384 18.211 11.575 28.475 16.821 2.771 1.416 19.098 8.047 22.583 10.016 11.642 6.579 17.86 15.455 27.085 24.153a30 30 0 0 1 2.05 1.862c4.89 4.266 10.318 7.948 14.796 12.64 0 0 6.734 7.143 1.201 14.467"/>
    <path d="M304.303 294.578c-1.251-6.255 2.805-12.34 9.06-13.59s12.34 2.805 13.59 9.06-2.805 12.34-9.06 13.59c-6.255 1.252-12.34-2.805-13.59-9.06m110.117 6.97c-1.251-6.255 2.805-12.34 9.06-13.59 6.255-1.252 12.34 2.805 13.59 9.06 1.251 6.254-2.805 12.34-9.06 13.59s-12.34-2.805-13.59-9.06m-.539 44.669c10.68 4.398 6.282 15.077 6.282 15.077l-2.696 5.959c-1.605 2.406-9.927 15.055-11.207 16.144-9.076 7.726-21.75 8.41-32.844 10.612-8.21 1.63-22.16 5.025-30.158 4.367-4.236-.348-7.916-3.172-12.042-4.192-3.563-.88-7.585.071-10.91-1.482-3.446-1.61-5.494-5.283-8.516-7.591-11.05-8.44-23.07-13.503-28.59-27.666-1.8-4.618-1.222-9.836-1.833-14.754 0 0-1.127-11.495 10.367-12.622s12.622 10.368 12.622 10.368c.163 2.98-.447 6.108.49 8.942 2.602 7.874 16.37 13.646 21.59 17.868 1.485 1.202 1.82 3.71 3.565 4.489 1.911.854 4.244-.575 6.28-.089 3.116.745 5.679 3.393 8.867 3.707 6.13.605 17.442-2.726 23.738-3.996 4.514-.91 18.104-1.362 21.983-5.185 3.29-3.244 4.815-7.89 7.378-11.734l.556-1.94s4.398-10.68 15.078-6.282"/>
  </g>
</svg>
