<svg version="1.1" xmlns="http://www.w3.org/2000/svg" xmlns:xlink="http://www.w3.org/1999/xlink" width="75.37055" height="90.4398" viewBox="0,0,75.37055,90.4398"><defs><linearGradient x1="243.38027" y1="138.39012" x2="243.38027" y2="189.08057" gradientUnits="userSpaceOnUse" id="color-1"><stop offset="0" stop-color="#ffcc00"/><stop offset="1" stop-color="#ff8200"/></linearGradient></defs><g transform="translate(-205.28244,-136.89012)"><g data-paper-data="{&quot;isPaintingLayer&quot;:true}" fill-rule="nonzero" stroke-linejoin="miter" stroke-miterlimit="10" stroke-dasharray="" stroke-dashoffset="0" style="mix-blend-mode: normal"><path d="M213.86593,190.90874v-42.45554c0,0 7.45008,-3.65996 15.81171,-3.65996c8.98973,0 25.47635,8.23491 33.83366,8.23491c8.29234,0 15.64169,-4.57495 15.64169,-4.57495v42.45554c0,0 -7.37725,4.57495 -15.64169,4.57495c-7.51077,0 -24.57873,-8.23491 -32.98357,-8.23491c-8.73065,0 -16.6618,3.65996 -16.6618,3.65996z" fill="#444444" stroke="#444444" stroke-width="3" stroke-linecap="butt"/><path d="M210.91162,224.82992v-76.85361" fill="#444444" stroke="#444444" stroke-width="5" stroke-linecap="round"/><path d="M210.73675,184.50562v-42.45554c0,0 7.45008,-3.65996 15.81171,-3.65996c8.98973,0 25.47635,8.23491 33.83366,8.23491c8.29234,0 15.64169,-4.57495 15.64169,-4.57495v42.45554c0,0 -7.37725,4.57495 -15.64169,4.57495c-7.51077,0 -24.57873,-8.23491 -32.98357,-8.23491c-8.73065,0 -16.6618,3.65996 -16.6618,3.65996z" fill="url(#color-1)" stroke="#a96800" stroke-width="3" stroke-linecap="butt"/><path d="M207.78244,218.42681v-76.85361" fill="none" stroke="#a96800" stroke-width="5" stroke-linecap="round"/></g></g></svg>
